<svg width="10px" height="10px" class="icon" fill="red">
  <symbol xmlns="http://www.w3.org/2000/svg" viewBox="0 -10 511.987 511" id="star">
    <path d="M510.652 185.902a27.158 27.158 0 00-23.425-18.71l-147.774-13.419-58.433-136.77C276.71 6.98 266.898.494 255.996.494s-20.715 6.487-25.023 16.534l-58.434 136.746-147.797 13.418a27.208 27.208 0 00-23.402 18.71c-3.371 10.368-.258 21.739 7.957 28.907l111.7 97.96-32.938 145.09c-2.41 10.668 1.73 21.696 10.582 28.094 4.757 3.438 10.324 5.188 15.937 5.188 4.84 0 9.64-1.305 13.95-3.883l127.468-76.184 127.422 76.184c9.324 5.61 21.078 5.097 29.91-1.305a27.223 27.223 0 0010.582-28.094l-32.937-145.09 111.699-97.94a27.224 27.224 0 007.98-28.927zm0 0"></path>
  </symbol>
  <symbol xmlns="http://www.w3.org/2000/svg" viewBox="0 0 25 19" id="twitter">
    <path fill-rule="evenodd" clip-rule="evenodd" d="M24.259 2.258c-.87.362-1.805.604-2.784.714 1-.562 1.77-1.453 2.131-2.513a10.18 10.18 0 01-3.08 1.102C19.643.677 18.382.126 16.988.126c-2.677 0-4.85 2.035-4.85 4.544 0 .356.043.704.126 1.036-4.03-.19-7.602-2-9.994-4.748a4.308 4.308 0 00-.656 2.285c0 1.575.856 2.968 2.157 3.783a5.093 5.093 0 01-2.196-.57v.059c0 2.201 1.67 4.038 3.889 4.455a5.278 5.278 0 01-2.19.079c.617 1.803 2.408 3.118 4.53 3.155-1.66 1.219-3.75 1.944-6.022 1.944-.392 0-.778-.021-1.157-.063a14.41 14.41 0 007.433 2.042c8.919 0 13.796-6.925 13.796-12.93 0-.198-.006-.392-.015-.588a9.564 9.564 0 002.42-2.351z"></path>
  </symbol>
  <symbol xmlns="http://www.w3.org/2000/svg" viewBox="0 0 11 22" id="facebook">
    <path fill-rule="evenodd" clip-rule="evenodd" d="M6.904 21.367H2.302v-10.68H0V7.003h2.3v-2.21c0-3.002 1.3-4.79 4.988-4.79h3.071v3.683H8.442c-1.438 0-1.532.515-1.532 1.476l-.006 1.841h3.479l-.408 3.682H6.904v10.681z"></path>
  </symbol>
  <symbol xmlns="http://www.w3.org/2000/svg" viewBox="0 0 22 22" id="instagramm">
    <path fill-rule="evenodd" clip-rule="evenodd" d="M10.553.003h-.757V0c-2.5.003-2.98.02-4.218.075C4.27.135 3.56.354 3.086.538a4.164 4.164 0 00-1.543 1.004c-.47.47-.76.917-1.004 1.544-.183.473-.402 1.183-.462 2.491C.013 6.992 0 7.415 0 10.998c0 3.584.013 4.01.077 5.424.06 1.308.279 2.018.462 2.49a4.16 4.16 0 001.004 1.543c.47.47.917.76 1.543 1.004.474.184 1.184.402 2.492.463C6.993 21.986 7.418 22 11 22c3.583 0 4.008-.014 5.422-.078 1.308-.06 2.02-.278 2.491-.463a4.149 4.149 0 001.543-1.003c.47-.47.76-.916 1.004-1.542.183-.473.402-1.183.462-2.491.064-1.415.078-1.84.078-5.421 0-3.582-.014-4.007-.078-5.421-.06-1.309-.279-2.019-.462-2.491a4.164 4.164 0 00-1.005-1.544 4.15 4.15 0 00-1.54-1.003C18.44.359 17.73.14 16.421.08 15.007.016 14.582.003 11 .003h-.447zm4.92 11.002a4.473 4.473 0 10-8.946 0 4.473 4.473 0 008.946 0zm2.689-8.773a1.61 1.61 0 100 3.22 1.61 1.61 0 000-3.22zM4.109 11.005a6.89 6.89 0 1113.78 0 6.89 6.89 0 01-13.78 0z"></path>
  </symbol>
  <symbol xmlns="http://www.w3.org/2000/svg" viewBox="0 0 548.358 548.358" id="vk">
    <path d="M545.451 400.298c-.664-1.431-1.283-2.618-1.858-3.569-9.514-17.135-27.695-38.167-54.532-63.102l-.567-.571-.284-.28-.287-.287h-.288c-12.18-11.611-19.893-19.418-23.123-23.415-5.91-7.614-7.234-15.321-4.004-23.13 2.282-5.9 10.854-18.36 25.696-37.397 7.807-10.089 13.99-18.175 18.556-24.267 32.931-43.78 47.208-71.756 42.828-83.939l-1.701-2.847c-1.143-1.714-4.093-3.282-8.846-4.712-4.764-1.427-10.853-1.663-18.278-.712l-82.224.568c-1.332-.472-3.234-.428-5.712.144l-3.713.859-1.431.715-1.136.859c-.952.568-1.999 1.567-3.142 2.995-1.137 1.423-2.088 3.093-2.848 4.996-8.952 23.031-19.13 44.444-30.553 64.238-7.043 11.803-13.511 22.032-19.418 30.693-5.899 8.658-10.848 15.037-14.842 19.126-4 4.093-7.61 7.372-10.852 9.849-3.237 2.478-5.708 3.525-7.419 3.142-1.715-.383-3.33-.763-4.859-1.143-2.663-1.714-4.805-4.045-6.42-6.995-1.622-2.95-2.714-6.663-3.285-11.136-.568-4.476-.904-8.326-1-11.563-.089-3.233-.048-7.806.145-13.706.198-5.903.287-9.897.287-11.991 0-7.234.141-15.085.424-23.555.288-8.47.521-15.181.716-20.125.194-4.949.284-10.185.284-15.705s-.336-9.849-1-12.991a44.442 44.442 0 00-2.99-9.137c-1.335-2.95-3.289-5.232-5.853-6.852-2.569-1.618-5.763-2.902-9.564-3.856-10.089-2.283-22.936-3.518-38.547-3.71-35.401-.38-58.148 1.906-68.236 6.855-3.997 2.091-7.614 4.948-10.848 8.562-3.427 4.189-3.905 6.475-1.431 6.851 11.422 1.711 19.508 5.804 24.267 12.275l1.715 3.429c1.334 2.474 2.666 6.854 3.999 13.134 1.331 6.28 2.19 13.227 2.568 20.837.95 13.897.95 25.793 0 35.689-.953 9.9-1.853 17.607-2.712 23.127-.859 5.52-2.143 9.993-3.855 13.418-1.715 3.426-2.856 5.52-3.428 6.28-.571.76-1.047 1.239-1.425 1.427a21.387 21.387 0 01-7.71 1.431c-2.667 0-5.901-1.334-9.707-4-3.805-2.666-7.754-6.328-11.847-10.992-4.093-4.665-8.709-11.184-13.85-19.558-5.137-8.374-10.467-18.271-15.987-29.691l-4.567-8.282c-2.855-5.328-6.755-13.086-11.704-23.267-4.952-10.185-9.329-20.037-13.134-29.554-1.521-3.997-3.806-7.04-6.851-9.134l-1.429-.859c-.95-.76-2.475-1.567-4.567-2.427a30.301 30.301 0 00-6.567-1.854l-78.229.568c-7.994 0-13.418 1.811-16.274 5.428l-1.143 1.711c-.571.953-.859 2.475-.859 4.57 0 2.094.571 4.664 1.714 7.707 11.42 26.84 23.839 52.725 37.257 77.659 13.418 24.934 25.078 45.019 34.973 60.237 9.897 15.229 19.985 29.602 30.264 43.112 10.279 13.515 17.083 22.176 20.412 25.981 3.333 3.812 5.951 6.662 7.854 8.565l7.139 6.851c4.568 4.569 11.276 10.041 20.127 16.416 8.853 6.379 18.654 12.659 29.408 18.85 10.756 6.181 23.269 11.225 37.546 15.126 14.275 3.905 28.169 5.472 41.684 4.716h32.834c6.659-.575 11.704-2.669 15.133-6.283l1.136-1.431c.764-1.136 1.479-2.901 2.139-5.276.668-2.379 1-5 1-7.851-.195-8.183.428-15.558 1.852-22.124 1.423-6.564 3.045-11.513 4.859-14.846 1.813-3.33 3.859-6.14 6.136-8.418 2.282-2.283 3.908-3.666 4.862-4.142.948-.479 1.705-.804 2.276-.999 4.568-1.522 9.944-.048 16.136 4.429 6.187 4.473 11.99 9.996 17.418 16.56 5.425 6.57 11.943 13.941 19.555 22.124 7.617 8.186 14.277 14.271 19.985 18.274l5.708 3.426c3.812 2.286 8.761 4.38 14.853 6.283 6.081 1.902 11.409 2.378 15.984 1.427l73.087-1.14c7.229 0 12.854-1.197 16.844-3.572 3.998-2.379 6.373-5 7.139-7.851.764-2.854.805-6.092.145-9.712-.677-3.611-1.344-6.136-2.008-7.563z"></path>
  </symbol>
</svg>


